<svg xmlns="http://www.w3.org/2000/svg" viewBox="0 0 25.6 25.6"><defs><style>.cls-1{fill:#5fc0ea;}</style></defs><g id="katman_2" data-name="katman 2"><g id="Layer_1" data-name="Layer 1"><path class="cls-1" d="M12.8,0A12.8,12.8,0,1,0,25.6,12.8,12.76,12.76,0,0,0,12.8,0Zm6.79,10c-2.59,2.53-5.14,5.1-7.7,7.66a1.74,1.74,0,0,1-.87.61,1.11,1.11,0,0,1-.74-.4L5.85,13.5a.88.88,0,0,1,0-1.48,8,8,0,0,0,.66-.64c.47-.53.91-.47,1.39,0,.81.83,1.66,1.61,2.44,2.47.45.5.73.5,1.2,0,1.95-2,3.95-4,5.93-6,.9-.9.95-.84,2.12.25C20.37,8.87,20.27,9.37,19.59,10Z"/></g></g></svg>